<svg xmlns="http://www.w3.org/2000/svg" width="1440" height="900" viewBox="0 0 1440 900">
  <!-- Background -->
  <rect width="1440" height="900" fill="#f8f9fa" />
  
  <!-- Abstract Shapes -->
  <circle cx="100" cy="100" r="50" fill="#4a6cf7" opacity="0.1" />
  <circle cx="1300" cy="200" r="80" fill="#4a6cf7" opacity="0.1" />
  <circle cx="200" cy="700" r="100" fill="#4a6cf7" opacity="0.1" />
  <circle cx="1100" cy="800" r="70" fill="#4a6cf7" opacity="0.1" />
  
  <!-- Wavy Pattern -->
  <path d="M0 300 Q 200 200 400 300 Q 600 400 800 300 Q 1000 200 1200 300 Q 1400 400 1600 300 V 900 H 0 Z" fill="#4a6cf7" opacity="0.05" />
  
  <!-- Dots Pattern -->
  <g fill="#4a6cf7" opacity="0.1">
    <!-- Row 1 -->
    <circle cx="100" cy="400" r="3" />
    <circle cx="150" cy="400" r="3" />
    <circle cx="200" cy="400" r="3" />
    <circle cx="250" cy="400" r="3" />
    <circle cx="300" cy="400" r="3" />
    <circle cx="350" cy="400" r="3" />
    <circle cx="400" cy="400" r="3" />
    <circle cx="450" cy="400" r="3" />
    <circle cx="500" cy="400" r="3" />
    <circle cx="550" cy="400" r="3" />
    <circle cx="600" cy="400" r="3" />
    <circle cx="650" cy="400" r="3" />
    <circle cx="700" cy="400" r="3" />
    <circle cx="750" cy="400" r="3" />
    <circle cx="800" cy="400" r="3" />
    <circle cx="850" cy="400" r="3" />
    <circle cx="900" cy="400" r="3" />
    <circle cx="950" cy="400" r="3" />
    <circle cx="1000" cy="400" r="3" />
    <circle cx="1050" cy="400" r="3" />
    <circle cx="1100" cy="400" r="3" />
    <circle cx="1150" cy="400" r="3" />
    <circle cx="1200" cy="400" r="3" />
    <circle cx="1250" cy="400" r="3" />
    <circle cx="1300" cy="400" r="3" />
    <circle cx="1350" cy="400" r="3" />
    <circle cx="1400" cy="400" r="3" />
    
    <!-- Row 2 -->
    <circle cx="100" cy="450" r="3" />
    <circle cx="150" cy="450" r="3" />
    <circle cx="200" cy="450" r="3" />
    <circle cx="250" cy="450" r="3" />
    <circle cx="300" cy="450" r="3" />
    <circle cx="350" cy="450" r="3" />
    <circle cx="400" cy="450" r="3" />
    <circle cx="450" cy="450" r="3" />
    <circle cx="500" cy="450" r="3" />
    <circle cx="550" cy="450" r="3" />
    <circle cx="600" cy="450" r="3" />
    <circle cx="650" cy="450" r="3" />
    <circle cx="700" cy="450" r="3" />
    <circle cx="750" cy="450" r="3" />
    <circle cx="800" cy="450" r="3" />
    <circle cx="850" cy="450" r="3" />
    <circle cx="900" cy="450" r="3" />
    <circle cx="950" cy="450" r="3" />
    <circle cx="1000" cy="450" r="3" />
    <circle cx="1050" cy="450" r="3" />
    <circle cx="1100" cy="450" r="3" />
    <circle cx="1150" cy="450" r="3" />
    <circle cx="1200" cy="450" r="3" />
    <circle cx="1250" cy="450" r="3" />
    <circle cx="1300" cy="450" r="3" />
    <circle cx="1350" cy="450" r="3" />
    <circle cx="1400" cy="450" r="3" />
    
    <!-- Row 3 -->
    <circle cx="100" cy="500" r="3" />
    <circle cx="150" cy="500" r="3" />
    <circle cx="200" cy="500" r="3" />
    <circle cx="250" cy="500" r="3" />
    <circle cx="300" cy="500" r="3" />
    <circle cx="350" cy="500" r="3" />
    <circle cx="400" cy="500" r="3" />
    <circle cx="450" cy="500" r="3" />
    <circle cx="500" cy="500" r="3" />
    <circle cx="550" cy="500" r="3" />
    <circle cx="600" cy="500" r="3" />
    <circle cx="650" cy="500" r="3" />
    <circle cx="700" cy="500" r="3" />
    <circle cx="750" cy="500" r="3" />
    <circle cx="800" cy="500" r="3" />
    <circle cx="850" cy="500" r="3" />
    <circle cx="900" cy="500" r="3" />
    <circle cx="950" cy="500" r="3" />
    <circle cx="1000" cy="500" r="3" />
    <circle cx="1050" cy="500" r="3" />
    <circle cx="1100" cy="500" r="3" />
    <circle cx="1150" cy="500" r="3" />
    <circle cx="1200" cy="500" r="3" />
    <circle cx="1250" cy="500" r="3" />
    <circle cx="1300" cy="500" r="3" />
    <circle cx="1350" cy="500" r="3" />
    <circle cx="1400" cy="500" r="3" />
  </g>
  
  <!-- Code-like Elements -->
  <g fill="#4a6cf7" opacity="0.2">
    <rect x="900" y="100" width="100" height="10" rx="5" />
    <rect x="950" y="120" width="150" height="10" rx="5" />
    <rect x="980" y="140" width="80" height="10" rx="5" />
    <rect x="950" y="160" width="120" height="10" rx="5" />
    <rect x="900" y="180" width="180" height="10" rx="5" />
    
    <rect x="100" y="600" width="120" height="10" rx="5" />
    <rect x="150" y="620" width="80" height="10" rx="5" />
    <rect x="120" y="640" width="150" height="10" rx="5" />
    <rect x="100" y="660" width="100" height="10" rx="5" />
    <rect x="150" y="680" width="130" height="10" rx="5" />
  </g>
  
  <!-- Floating Icons -->
  <!-- HTML Icon -->
  <g transform="translate(1200, 500)">
    <polygon points="0,0 50,0 45,50 25,55 5,50" fill="#E44D26" opacity="0.6" />
    <polygon points="25,5 40,5 37,45 25,48 25,5" fill="#F16529" opacity="0.6" />
    <text x="25" y="30" font-family="Arial" font-size="20" fill="white" text-anchor="middle">H</text>
  </g>
  
  <!-- CSS Icon -->
  <g transform="translate(1100, 600)">
    <polygon points="0,0 50,0 45,50 25,55 5,50" fill="#1572B6" opacity="0.6" />
    <polygon points="25,5 40,5 37,45 25,48 25,5" fill="#33A9DC" opacity="0.6" />
    <text x="25" y="30" font-family="Arial" font-size="20" fill="white" text-anchor="middle">C</text>
  </g>
  
  <!-- JS Icon -->
  <g transform="translate(1300, 550)">
    <rect x="0" y="0" width="50" height="50" fill="#F7DF1E" opacity="0.6" />
    <text x="25" y="30" font-family="Arial" font-size="20" fill="#333" text-anchor="middle">JS</text>
  </g>
</svg>